<svg width="90" height="33" viewBox="0 0 90 33" fill="none" xmlns="http://www.w3.org/2000/svg">
<path d="M13.056 23.432L0.47998 2.02399H8.44798L15.6 16.52L11.472 16.376L17.664 2.02399H25.152L13.248 23.432H13.056Z" fill="#ffffff"/>
<path d="M52.3372 23.432L39.7612 2.02399H47.7292L54.8812 16.52L50.7532 16.376L56.9452 2.02399H64.4332L52.5292 23.432H52.3372Z" fill="#ffffff"/>
<path d="M76.2724 23.576C74.3204 23.576 72.5444 23.192 70.9444 22.424C69.3764 21.624 68.1284 20.408 67.2004 18.776C66.2724 17.144 65.8084 15.064 65.8084 12.536C65.8084 10.168 66.2884 8.11999 67.2484 6.39199C68.2084 4.66399 69.4724 3.33599 71.0404 2.40799C72.6084 1.44799 74.2724 0.967987 76.0324 0.967987C78.1124 0.967987 79.6804 1.31999 80.7364 2.02399C81.8244 2.69599 82.7204 3.44799 83.4244 4.27999L83.1364 5.09599L83.7604 2.02399H90.0004V23H83.2804V18.44L83.8084 19.88C83.7444 19.88 83.5524 20.072 83.2324 20.456C82.9124 20.808 82.4324 21.24 81.7924 21.752C81.1844 22.232 80.4164 22.648 79.4884 23C78.5924 23.384 77.5204 23.576 76.2724 23.576ZM78.1924 18.104C78.9924 18.104 79.7124 17.992 80.3524 17.768C80.9924 17.512 81.5524 17.16 82.0324 16.712C82.5124 16.232 82.9284 15.64 83.2804 14.936V9.79999C83.0244 9.09599 82.6404 8.50399 82.1284 8.02399C81.6164 7.51199 81.0084 7.12799 80.3044 6.87199C79.6004 6.58399 78.8164 6.43999 77.9524 6.43999C76.9924 6.43999 76.0964 6.69599 75.2644 7.20799C74.4644 7.68799 73.8244 8.35999 73.3444 9.22399C72.8644 10.088 72.6244 11.08 72.6244 12.2C72.6244 13.32 72.8804 14.328 73.3924 15.224C73.9044 16.12 74.5764 16.824 75.4084 17.336C76.2724 17.848 77.2004 18.104 78.1924 18.104Z" fill="#ffffff"/>
<path fill-rule="evenodd" clip-rule="evenodd" d="M35.8166 2.02399H29.0966V23H35.8166V2.02399Z" fill="#ffffff"/>
<path fill-rule="evenodd" clip-rule="evenodd" d="M30.152 26.96C29.384 27.6 29 28.416 29 29.408C29 30.4 29.384 31.216 30.152 31.856C30.952 32.464 31.8 32.768 32.696 32.768C33.592 32.768 34.408 32.464 35.144 31.856C35.912 31.216 36.296 30.4 36.296 29.408C36.296 28.416 35.912 27.6 35.144 26.96C34.408 26.32 33.592 26 32.696 26C31.8 26 30.952 26.32 30.152 26.96Z" fill="#ffffff"/>
</svg>
